<svg xmlns="http://www.w3.org/2000/svg" viewBox="0 0 200 200"><defs><style>.a{fill:none;stroke:#000;stroke-miterlimit:10;stroke-width:12px;}.b{fill:#fff;}</style></defs><title>vertical_wave</title><path class="a" d="M54.5,194.5c0-10.55,98-10.55,98-21.11s-124-10.55-124-21.1,156-10.56,156-21.11-174-10.56-174-21.11,178-10.56,178-21.12S16.5,78.4,16.5,67.84s154-10.55,154-21.11-118-10.56-118-21.11,88-10.56,88-21.12"/><polygon points="90.93 179.58 90.93 77.57 62 77.57 62 60.29 90.93 60.29 90.93 20.42 109.07 20.42 109.07 60.29 138 60.29 138 77.57 109.07 77.57 109.07 179.58 90.93 179.58"/><path class="b" d="M106.57,22.92V62.79H135.5V75.07H106.57v102H93.43v-102H64.5V62.79H93.43V22.92h13.14m5-5H88.43V57.79H59.5V80.07H88.43v102h23.14v-102H140.5V57.79H111.57V17.92Z"/></svg>
