<?xml version="1.0" encoding="iso-8859-1"?>
<!-- Generator: Adobe Illustrator 19.0.0, SVG Export Plug-In . SVG Version: 6.00 Build 0)  -->
<svg version="1.1" id="Capa_1" xmlns="http://www.w3.org/2000/svg" xmlns:xlink="http://www.w3.org/1999/xlink" x="0px" y="0px"
	 viewBox="0 0 512 512" style="enable-background:new 0 0 512 512;" xml:space="preserve">
<g>
	<g>
		<path d="M492.181,229.785l-0.881-24.617c-2.306-64.481-23.707-115.184-63.607-150.697C361.7-4.269,268.256-0.439,256,0.341
			C243.754-0.44,150.301-4.269,84.307,54.47c-39.9,35.515-61.301,86.217-63.607,150.698l-0.881,24.617l19.263-9.08
			c-2.549,12.465-4.52,27.692-4.313,44.532c0.507,41.073,14.45,99.784,77.99,146.228l19.161,14.005l3.14-16.478
			c20.551,33.385,57.471,78.646,115.351,100.932l5.395,2.077l5.394-2.078c41.574-16.008,78.333-45.558,106.306-85.451
			c3.538-5.046,6.73-9.96,9.592-14.65l2.982,15.648l19.161-14.005c63.54-46.444,77.483-105.156,77.99-146.228
			c0.207-16.839-1.764-32.067-4.313-44.532L492.181,229.785z M435.345,198.937c0.123,0.279,12.329,28.361,11.866,65.927
			c-0.517,41.899-16.252,77.695-46.841,106.707l-12.686-66.493l-18.39,53.229c-0.079,0.227-8.079,23.061-26.918,49.706
			c-23.561,33.324-52.66,57.425-86.555,71.711c-40.252-17.152-68.316-47.966-85-71.289c-19.287-26.964-28.166-50.285-28.246-50.496
			l-18.757-50.317l-12.187,63.948c-30.31-28.752-46.039-64.178-46.823-105.607c-0.714-37.742,11.737-66.769,11.849-67.024
			l16.251-36.791l-40.112,18.907c5.877-43.922,23.097-78.849,51.356-104.055C163.72,23.868,253.9,30.28,254.793,30.351l1.21,0.094
			l1.191-0.094c0.903-0.069,91.085-6.486,150.654,46.648c28.259,25.206,45.479,60.133,51.356,104.055l-40.112-18.907
			L435.345,198.937z"/>
	</g>
</g>
<g>
	<g>
		<polygon points="270.82,283.659 287.767,254.307 224.233,254.307 240.799,282.999 240.799,314.885 230.483,314.885 
			230.483,344.906 281.518,344.906 281.518,314.885 270.82,314.885 		"/>
	</g>
</g>
<g>
	<g>
		<path d="M388.952,77.661c-13.21-11.423-26.254-12.237-34.869-10.91c-18.008,2.775-32.005,16.983-39.475,26.378
			c-29.501-11.446-56.959-11.638-58.608-11.638c-1.649,0-29.107,0.191-58.607,11.638c-7.471-9.395-21.467-23.604-39.475-26.379
			c-8.615-1.326-21.661-0.512-34.869,10.91c-14.108,12.2-16.829,25.693-16.627,34.865c0.481,21.849,17.573,40.219,26.054,48.014
			c-2.302,9.87-2.882,20.215-1.561,30.579c2.827,22.173,9.353,51.531,24.378,71.861c-4.407,18.055-11.479,61.565,11.899,94.048
			c17.521,24.344,47.4,36.688,88.81,36.688c41.41,0,71.289-12.344,88.81-36.688c23.377-32.481,16.306-75.993,11.899-94.048
			c15.026-20.33,21.55-49.687,24.378-71.862c1.321-10.364,0.741-20.708-1.56-30.579c8.481-7.796,25.572-26.167,26.054-48.015
			C405.781,103.356,403.06,89.862,388.952,77.661z M145.671,130.931c-4.791-5.82-9.101-12.906-9.236-19.065
			c-0.057-2.566,0.529-6.55,6.25-11.497c4.847-4.191,8.22-4.312,10.621-3.953c5.666,0.855,11.833,5.805,16.715,10.972
			c-3.932,2.694-7.763,5.666-11.428,8.949C153.687,120.732,149.371,125.639,145.671,130.931z M351.305,187.323
			c-3.665,28.749-11.489,50.681-22.033,61.759l-6.186,6.545l2.816,8.538c0.153,0.465,15.114,46.878-5.522,75.412
			c-11.573,16.003-33.233,24.116-64.38,24.116s-52.808-8.114-64.38-24.116c-20.636-28.536-5.675-74.947-5.532-75.381l2.869-8.569
			l-6.229-6.546c-10.543-11.078-18.368-33.011-22.033-61.758c-2.334-18.302,4.368-36.479,17.928-48.624
			c29.784-26.677,76.935-27.185,77.346-27.187c0.473,0.002,47.624,0.509,77.41,27.187
			C346.937,150.845,353.638,169.022,351.305,187.323z M375.565,111.827c-0.12,6.335-4.528,13.404-9.246,19.092
			c-3.698-5.288-8.011-10.19-12.912-14.58c-3.666-3.283-7.497-6.255-11.429-8.949c4.881-5.166,11.049-10.117,16.715-10.971
			c2.4-0.359,5.774-0.239,10.621,3.953C375.02,105.303,375.614,109.271,375.565,111.827z"/>
	</g>
</g>
<g>
	<g>
		<rect x="195.457" y="168" transform="matrix(0.5884 -0.8086 0.8086 0.5884 -67.317 248.5495)" width="30.022" height="44.788"/>
	</g>
</g>
<g>
	<g>
		
			<rect x="279.156" y="175.385" transform="matrix(0.8086 -0.5884 0.5884 0.8086 -54.3039 213.8735)" width="44.788" height="30.022"/>
	</g>
</g>
<g>
</g>
<g>
</g>
<g>
</g>
<g>
</g>
<g>
</g>
<g>
</g>
<g>
</g>
<g>
</g>
<g>
</g>
<g>
</g>
<g>
</g>
<g>
</g>
<g>
</g>
<g>
</g>
<g>
</g>
</svg>
