<?xml version="1.0" encoding="iso-8859-1"?>
<!-- Generator: Adobe Illustrator 19.0.0, SVG Export Plug-In . SVG Version: 6.00 Build 0)  -->
<svg version="1.1" id="Capa_1" xmlns="http://www.w3.org/2000/svg" xmlns:xlink="http://www.w3.org/1999/xlink" x="0px" y="0px"
	 viewBox="0 0 512.002 512.002" style="enable-background:new 0 0 512.002 512.002;" xml:space="preserve">
<g>
	<g>
		<path d="M502.675,271.26h-78.761c-8.574,0-15.477-7.151-15.068-15.815c0.379-8.117,7.369-14.359,15.492-14.359h78.369
			c5.493,0,9.778-4.742,9.251-10.21c-1.595-16.554-4.762-32.771-9.429-48.479c-1.563-5.261-7.309-8.042-12.397-5.986l-73.894,29.85
			c-1.852,0.747-3.764,1.102-5.645,1.102c-6.151,0-11.964-3.785-14.201-9.983c-2.775-7.691,1.343-16.185,8.924-19.247l73.304-29.612
			c5.123-2.07,7.311-8.122,4.718-13c-7.884-14.829-17.266-28.928-28.065-42.114c-3.479-4.247-9.873-4.554-13.755-0.672
			l-55.706,55.705c-2.946,2.946-6.808,4.419-10.666,4.419c-3.861,0-7.722-1.472-10.666-4.419c-5.891-5.891-5.891-15.443,0-21.334
			l55.797-55.796c3.88-3.88,3.562-10.252-0.665-13.75c-12.819-10.607-26.515-19.865-40.912-27.701
			c-4.825-2.627-10.867-0.532-13.014,4.526l-30.62,72.124c-2.44,5.745-8.022,9.194-13.893,9.194c-2.302,0-4.647-0.53-6.865-1.659
			c-7.122-3.627-9.968-12.367-6.846-19.724l30.398-71.603c2.15-5.065-0.545-10.892-5.803-12.511
			C315.636,5.149,298.64,1.741,281.275,0.06c-5.458-0.528-10.184,3.77-10.184,9.253v78.118c0,8.123-6.242,15.113-14.356,15.495
			c-8.663,0.408-15.816-6.495-15.816-15.068V9.313c0-5.492-4.74-9.781-10.206-9.251c-16.001,1.551-31.687,4.568-46.901,8.992
			c-5.286,1.537-8.09,7.305-6.028,12.41l29.09,72.012c3.121,7.725-0.612,16.517-8.337,19.637c-1.85,0.748-3.764,1.102-5.645,1.102
			c-5.969,0-11.62-3.565-13.992-9.439l-29.117-72.071c-2.057-5.091-8.062-7.306-12.924-4.757
			c-15.532,8.141-30.274,17.924-44.015,29.248c-4.232,3.488-4.537,9.868-0.659,13.746l55.883,55.882
			c5.891,5.89,5.891,15.442,0,21.334c-2.946,2.946-6.807,4.419-10.666,4.419s-7.722-1.472-10.666-4.419L70.859,92.284
			c-3.882-3.882-10.266-3.568-13.755,0.67c-9.914,12.045-18.646,24.856-26.126,38.295c-2.685,4.824-0.589,10.916,4.492,13.073
			l71.428,30.325c7.48,3.176,11.451,11.662,8.62,19.28c-2.281,6.138-8.063,9.852-14.154,9.852c-1.967,0-3.963-0.386-5.888-1.204
			l-72.074-30.599c-5.039-2.139-10.831,0.519-12.491,5.735c-5.462,17.167-9.115,34.974-10.867,53.186
			c-0.525,5.46,3.767,10.19,9.253,10.19h78.908c8.123,0,15.113,6.242,15.495,14.356c0.408,8.663-6.495,15.815-15.068,15.815H9.332
			c-5.491,0-9.784,4.739-9.251,10.205c1.522,15.609,4.436,30.921,8.693,45.785c1.519,5.304,7.303,8.123,12.418,6.056l72.871-29.437
			c7.721-3.121,16.517,0.612,19.637,8.337c3.121,7.725-0.612,16.517-8.337,19.637l-73.091,29.526
			c-5.081,2.053-7.295,8.036-4.77,12.9c8.32,16.028,18.379,31.224,30.075,45.355c3.494,4.221,9.864,4.524,13.738,0.65l56.086-56.085
			c5.89-5.891,15.443-5.89,21.334,0c5.891,5.891,5.891,15.443,0,21.334l-55.993,55.993c-3.885,3.885-3.571,10.28,0.679,13.762
			c11.644,9.537,24,17.969,36.943,25.239c4.753,2.67,10.777,0.683,13.019-4.286l33.023-73.198
			c3.525-7.815,12.884-11.167,20.613-7.231c7.239,3.686,10.053,12.625,6.713,20.029l-32.607,72.274
			c-2.279,5.051,0.341,10.967,5.615,12.669c17.411,5.618,35.484,9.373,53.978,11.167c5.465,0.53,10.202-3.762,10.202-9.252v-79.124
			c0-8.123,6.242-15.113,14.356-15.494c8.663-0.407,15.815,6.496,15.815,15.068v79.551c0,5.493,4.742,9.781,10.209,9.251
			c16.163-1.567,32.004-4.632,47.363-9.13c5.278-1.546,8.074-7.307,6.014-12.406l-30.197-74.754
			c-3.121-7.725,0.611-16.517,8.337-19.637c7.726-3.122,16.517,0.611,19.637,8.337l30.185,74.724
			c2.059,5.096,8.074,7.311,12.936,4.751c15.336-8.075,29.898-17.751,43.485-28.933c4.235-3.486,4.539-9.869,0.661-13.747
			l-55.909-55.909c-5.891-5.891-5.891-15.443,0-21.334c5.89-5.891,15.443-5.891,21.334,0l55.917,55.917
			c3.886,3.886,10.27,3.56,13.764-0.682c10.625-12.902,19.886-26.686,27.712-41.176c2.606-4.824,0.508-10.846-4.539-12.99
			l-73.902-31.375c-7.669-3.255-11.248-12.112-7.991-19.781c3.256-7.668,12.118-11.244,19.781-7.99l73.628,31.258
			c5.09,2.161,10.923-0.578,12.532-5.869c4.897-16.094,8.215-32.732,9.875-49.727C512.459,276.015,508.177,271.26,502.675,271.26z
			 M256.92,330.096c-40.857,0-74.095-33.239-74.095-74.096c0-40.857,33.239-74.095,74.095-74.095
			c40.857,0,74.096,33.239,74.096,74.095C331.016,296.856,297.776,330.096,256.92,330.096z"/>
	</g>
</g>
<g>
</g>
<g>
</g>
<g>
</g>
<g>
</g>
<g>
</g>
<g>
</g>
<g>
</g>
<g>
</g>
<g>
</g>
<g>
</g>
<g>
</g>
<g>
</g>
<g>
</g>
<g>
</g>
<g>
</g>
</svg>
