<?xml version="1.0" encoding="iso-8859-1"?>
<!-- Generator: Adobe Illustrator 19.0.0, SVG Export Plug-In . SVG Version: 6.00 Build 0)  -->
<svg version="1.1" id="Layer_1" xmlns="http://www.w3.org/2000/svg" xmlns:xlink="http://www.w3.org/1999/xlink" x="0px" y="0px"
	 viewBox="0 0 512 512" style="enable-background:new 0 0 512 512;" xml:space="preserve">
<g>
	<g>
		<path d="M502.832,50.923l0.569-0.569c11.466-11.467,11.467-30.123,0-41.59c-5.554-5.554-12.94-8.613-20.795-8.613
			c-7.855,0-15.24,3.059-20.794,8.613l-7.651,7.651l-5.892-5.892c-4.242-4.242-11.118-4.242-15.363-0.001
			c-4.242,4.242-4.242,11.12,0,15.362l5.892,5.892L428.43,42.143l-5.892-5.892c-4.243-4.242-11.119-4.242-15.363,0
			c-4.242,4.242-4.242,11.12,0,15.362l5.892,5.892l-1.682,1.682c-2.037,2.037-3.182,4.8-3.182,7.681c0,0.28,0.02,0.558,0.041,0.836
			l-98.887,92.561c-16.961-9.972-36.701-14.627-56.535-13.169c-23.252,1.71-45.146,11.743-61.653,28.249
			c-8.143,8.143-14.703,17.555-19.531,28.034l-8.341,4.687c-3.792,2.146-6.148,6.19-6.148,10.552c0,4.362,2.356,8.406,6.193,10.577
			l0.381,0.213c-2.154,9.258-7.068,17.916-14.305,25.161c-6.887,6.877-15.795,11.76-25.76,14.116
			c-5.248,1.238-10.512-1.031-13.104-5.644c-0.023-0.041-0.047-0.081-0.07-0.123c-2.163-3.735-6.187-6.055-10.504-6.055
			c-4.31,0-8.331,2.32-10.493,6.055c-0.024,0.041-0.048,0.083-0.071,0.125l-1.52,2.707c-1.713,3.042-4.749,5.163-8.324,5.82
			c-19.427,3.557-37.095,12.837-51.094,26.836c-37.973,37.974-37.973,99.76,0,137.732c0.066,0.065,0.133,0.13,0.2,0.194
			c0.116,0.111,0.235,0.219,0.362,0.332c0.035,0.037,0.071,0.073,0.108,0.109l22.895,22.895c0.015,0.015,0.075,0.075,0.09,0.09
			l22.941,22.941c0.033,0.033,0.066,0.065,0.099,0.098c0.113,0.126,0.226,0.25,0.342,0.372c0.064,0.066,0.129,0.134,0.194,0.2
			c18.987,18.987,43.926,28.48,68.867,28.48c24.94,0,49.879-9.493,68.866-28.48c14-14,23.28-31.668,26.835-51.088
			c0.657-3.58,2.78-6.616,5.809-8.323l2.753-1.545c3.769-2.134,6.125-6.151,6.147-10.487c0.021-4.34-2.299-8.387-6.054-10.562
			c-0.042-0.024-0.085-0.049-0.127-0.073c-3.686-2.068-5.974-6.012-5.974-10.293c0-0.912,0.115-1.868,0.332-2.803
			c2.358-9.97,7.24-18.878,14.107-25.755c7.256-7.246,15.913-12.162,25.171-14.316l0.235,0.418c2.143,3.795,6.185,6.154,10.55,6.156
			c0.002,0,0.003,0,0.005,0c4.362-0.001,8.404-2.355,10.57-6.181l4.66-8.305c10.459-4.813,19.888-11.382,28.043-19.537
			c16.505-16.505,26.536-38.403,28.244-61.658c1.457-19.832-3.197-39.572-13.164-56.529l92.322-98.632
			c0.462,0.059,0.924,0.1,1.389,0.1c2.78,0,5.56-1.06,7.681-3.182l8.764-8.764l5.769,5.769c2.12,2.121,4.9,3.182,7.68,3.182
			s5.561-1.061,7.681-3.182c4.242-4.242,4.242-11.12-0.001-15.362l-5.768-5.768l10.367-10.367l5.768,5.768
			c2.121,2.121,4.901,3.182,7.681,3.182c2.78,0,5.56-1.061,7.681-3.182c4.242-4.242,4.242-11.12,0-15.362L502.832,50.923z
			 M68.516,445.421l-0.975-0.975c-0.015-0.015-0.075-0.075-0.09-0.09l-1.019-1.019l45.395-55.91l12.6,12.6L68.516,445.421z
			 M343.081,257.429c-1.326,18.059-9.118,35.066-21.939,47.887c-6.551,6.552-14.163,11.785-22.578,15.533
			c-3.143,1.383-5.757,3.559-7.639,6.348c-3.054-1.199-6.443-1.577-9.816-0.968c-0.033,0.007-0.077,0.015-0.124,0.024
			c-14.535,2.609-28.043,9.807-39.077,20.828c-9.724,9.737-16.601,22.225-19.896,36.155c-0.602,2.584-0.906,5.198-0.906,7.765
			c0,7.333,2.392,14.329,6.611,20.021c-4.499,4.707-7.588,10.703-8.806,17.342c-2.759,15.069-9.961,28.777-20.828,39.644
			c-14.292,14.292-33.294,22.163-53.504,22.163c-20.108,0-39.02-7.792-53.287-21.947c-0.204-0.238-0.412-0.472-0.627-0.7
			c-0.256-0.271-0.524-0.525-0.804-0.765l-7.442-7.442l62.754-50.951c2.15-1.746,3.459-4.32,3.601-7.084
			c0.143-2.765-0.893-5.461-2.85-7.418l-27.934-27.934c-1.957-1.957-4.656-3-7.418-2.85c-2.765,0.142-5.339,1.451-7.084,3.601
			l-50.951,62.754l-7.437-7.437c-0.236-0.275-0.487-0.54-0.752-0.792c-0.217-0.206-0.441-0.406-0.716-0.644
			c-14.156-14.267-21.948-33.179-21.948-53.288c0-20.21,7.871-39.212,22.163-53.504c10.866-10.867,24.575-18.069,39.65-20.829
			c6.643-1.22,12.644-4.315,17.355-8.825c7.792,5.743,17.954,8.038,27.805,5.715c13.89-3.285,26.379-10.162,36.126-19.896
			c11.008-11.021,18.205-24.525,20.816-39.055c0.009-0.046,0.017-0.091,0.025-0.137c0.61-3.375,0.234-6.763-0.971-9.818
			c2.787-1.876,4.966-4.487,6.333-7.594c3.767-8.458,9-16.069,15.552-22.622c12.823-12.823,29.829-20.616,47.884-21.944
			c13.231-0.975,26.402,1.55,38.195,7.176l-78.655,73.625c-2.15,2.012-3.39,4.809-3.438,7.752c-0.049,2.943,1.099,5.779,3.18,7.86
			l32.974,32.974c2.039,2.039,4.802,3.182,7.681,3.182c0.06,0,0.12,0,0.18-0.001c2.943-0.048,5.74-1.288,7.752-3.438l73.624-78.656
			C341.531,231.03,344.053,244.199,343.081,257.429z M331.808,191.827c-0.19,0.122-0.382,0.236-0.567,0.37
			c-1.343,0.978-2.384,2.212-3.131,3.579l-74.015,79.074l-17.096-17.095l79.07-74.012c1.369-0.745,2.604-1.788,3.583-3.132
			c0.135-0.186,0.251-0.379,0.373-0.569L421.703,84.87l5.279,5.279L331.808,191.827z M488.038,34.991l-7.388,7.388
			c-0.315,0.252-0.622,0.519-0.915,0.81c-0.292,0.292-0.561,0.601-0.813,0.916l-24.001,24.001c-0.316,0.252-0.624,0.52-0.917,0.814
			c-0.292,0.292-0.56,0.601-0.813,0.916l-7.898,7.898l-10.864-10.864l42.744-42.742c1.45-1.451,3.379-2.251,5.431-2.251
			c2.053,0,3.981,0.799,5.432,2.25C491.034,27.122,491.034,31.996,488.038,34.991z"/>
	</g>
</g>
<g>
	<g>
		<path d="M179.775,281.019c-4.983,0-9.095,3.728-9.7,8.547c-2.389,2.381-11.38,5.969-16.331,7.945
			c-14.041,5.604-28.561,11.398-28.561,24.877c0,5.4,4.377,9.776,9.776,9.776c4.983,0,9.095-3.728,9.7-8.548
			c2.389-2.381,11.38-5.969,16.332-7.946c14.041-5.602,28.56-11.396,28.56-24.874C189.551,285.396,185.175,281.019,179.775,281.019z
			"/>
	</g>
</g>
<g>
	<g>
		<path d="M221.055,322.3c-13.478,0-19.274,14.519-24.877,28.56c-1.976,4.952-5.564,13.942-7.945,16.331
			c-4.82,0.605-8.548,4.717-8.548,9.7c0,5.4,4.377,9.776,9.776,9.776c13.478,0,19.273-14.519,24.875-28.56
			c1.976-4.952,5.565-13.943,7.946-16.332c4.82-0.605,8.548-4.717,8.548-9.7C230.832,326.677,226.455,322.3,221.055,322.3z"/>
	</g>
</g>
<g>
</g>
<g>
</g>
<g>
</g>
<g>
</g>
<g>
</g>
<g>
</g>
<g>
</g>
<g>
</g>
<g>
</g>
<g>
</g>
<g>
</g>
<g>
</g>
<g>
</g>
<g>
</g>
<g>
</g>
</svg>
